<svg width="1393" height="2418" viewBox="0 0 1393 2418" fill="none" xmlns="http://www.w3.org/2000/svg">
<path d="M1253.23 860.662C1260.58 859.048 1268.65 857.075 1271.16 856.358C1273.67 855.461 1278.33 854.743 1281.38 854.743C1287.12 854.564 1287.3 854.743 1286.22 860.304C1285.51 863.532 1284.79 866.76 1284.43 867.478C1284.07 868.375 1282.28 868.375 1280.48 867.837C1278.51 867.119 1272.41 870.168 1263.09 876.446C1255.2 881.827 1243.9 888.284 1237.98 890.795C1232.06 893.306 1216.82 899.404 1203.91 904.426C1191 909.269 1169.65 916.802 1156.38 920.748C1143.11 924.873 1122.13 931.151 1109.76 934.559C1097.38 937.966 1083.21 941.554 1078.37 942.271C1073.35 943.168 1054.88 947.114 1037.12 951.06C1019.37 955.006 990.317 960.566 972.563 963.615C954.808 966.664 934.723 970.072 927.728 971.148C920.734 972.045 912.305 973.3 908.898 973.659C905.491 974.197 896.524 975.453 889.171 976.529C881.818 977.426 863.167 979.937 847.923 982.089C832.68 984.062 815.643 986.035 810.263 986.394C804.883 986.752 791.97 987.649 781.569 988.008C771.167 988.546 747.853 989.802 729.561 990.698C711.269 991.775 684.906 992.313 670.918 992.133C656.929 991.954 646.528 991.236 647.604 990.698C648.859 990.16 656.212 988.546 664.103 987.47C671.994 986.214 684.547 984.062 691.9 982.448C699.253 981.013 710.551 978.323 717.007 976.529C723.463 974.735 735.479 970.969 743.908 968.458C752.337 965.767 763.635 962.539 769.015 961.283C774.395 960.028 787.307 956.082 797.709 952.674C808.111 949.266 824.61 944.423 834.473 941.733C844.337 938.863 857.608 935.276 864.064 933.303C870.52 931.51 881.818 928.281 889.171 926.308C896.524 924.335 912.664 919.851 925.038 916.443C937.413 913.215 955.526 908.372 965.389 905.861C975.253 903.171 986.192 900.66 989.6 900.121C993.007 899.583 1003.95 897.61 1013.81 895.637C1023.67 893.844 1036.59 890.974 1042.5 889.539C1048.42 888.104 1061.33 885.773 1071.2 884.338C1081.06 882.903 1097.56 880.571 1107.96 878.957C1118.36 877.522 1136.48 875.37 1148.31 874.294C1160.15 873.217 1179.16 871.603 1190.46 870.706C1201.76 869.63 1213.41 868.016 1216.46 867.119C1219.51 866.222 1225.79 864.967 1230.81 864.608C1235.65 864.07 1245.87 862.276 1253.23 860.662Z" fill="#E9A70C"/>
<path d="M610.302 7.08739C621.062 5.29379 641.686 2.9621 656.033 1.70658C670.38 0.451062 689.21 -0.266379 698.177 0.0923413C707.144 0.630422 720.773 1.34786 728.664 1.88594C736.555 2.42402 752.337 4.03827 763.635 5.47315C774.933 7.08739 795.198 10.4952 808.469 13.365C821.74 16.0554 839.853 20.5394 848.82 23.2298C857.787 25.7408 870.161 29.3281 876.617 31.1217C883.074 32.9153 889.888 35.2469 891.861 36.3231C893.834 37.3993 907.105 43.1388 921.452 49.237C935.799 55.3353 950.863 61.9716 954.988 64.1239C959.113 66.2762 967.542 70.7602 973.818 74.1681C979.916 77.3966 990.138 83.4948 996.415 87.6201C1002.51 91.566 1007.53 95.512 1007.53 96.2294C1007.53 97.1262 1008.43 97.3056 1009.33 96.7675C1010.22 96.2294 1013.09 97.4849 1015.6 99.4579C1018.11 101.431 1020.45 103.045 1020.98 103.045C1021.52 103.045 1026.18 106.274 1031.21 110.04C1036.41 113.986 1045.19 120.622 1050.75 124.927C1056.13 129.232 1063.85 134.971 1067.79 138.02C1071.56 140.89 1075.14 143.76 1075.68 144.298C1076.22 145.015 1085.01 153.087 1095.23 162.413C1105.63 171.561 1124.64 191.111 1137.37 205.639C1150.29 220.167 1162.48 234.337 1164.63 237.027C1166.61 239.718 1175.39 252.093 1184 264.469C1192.61 276.845 1204.8 295.319 1211.08 305.722C1217.18 316.125 1227.76 335.855 1234.22 349.665C1240.85 363.476 1247.67 378.004 1252.69 389.125L1283.89 389.304C1311.51 389.304 1316.35 389.842 1326.75 393.429C1333.21 395.761 1342.89 400.066 1348.27 403.115C1353.65 406.164 1361.72 411.903 1366.03 416.029C1370.33 419.974 1375.89 426.431 1378.4 430.377C1380.91 434.323 1385.04 441.498 1387.37 446.52C1389.7 451.363 1392.21 459.972 1392.75 465.353C1393.11 470.733 1393.11 478.805 1392.57 483.289C1391.67 488.849 1389.16 494.23 1384.5 500.328C1380.38 505.709 1373.74 511.269 1368.36 514.139C1361.55 517.726 1356.17 519.161 1348.63 519.519C1341.1 519.699 1336.26 518.623 1329.8 515.394C1324.96 513.062 1318.86 508.578 1315.99 505.709C1313.12 502.839 1308.1 495.126 1304.52 488.669C1300.21 480.778 1296.27 475.935 1292.32 473.783C1289.09 472.168 1285.33 470.733 1284.07 470.733C1282.82 470.733 1281.92 473.065 1281.92 476.473C1281.92 479.701 1282.64 485.262 1283.71 488.669C1284.61 492.077 1286.94 508.578 1289.09 525.438C1291.07 542.298 1292.68 566.691 1292.68 603.46L1298.42 605.612C1301.65 606.868 1308.82 610.096 1314.2 612.966C1319.58 615.836 1328.01 621.217 1333.03 624.983C1337.87 628.75 1345.4 635.207 1349.53 639.511C1353.83 643.816 1359.93 650.99 1363.16 655.474C1366.39 659.958 1371.77 668.747 1374.82 675.204C1378.04 681.661 1382.17 693.319 1384.14 701.211C1386.29 709.821 1387.73 722.017 1387.91 731.702C1387.91 740.491 1387.19 751.611 1386.11 756.275C1385.04 761.118 1382.17 769.189 1379.84 774.211C1377.51 779.412 1371.77 788.918 1366.93 795.196C1362.08 801.653 1353.12 811.338 1347.2 816.719C1341.1 822.279 1331.78 829.454 1326.57 832.503C1321.19 835.731 1310.43 841.292 1302.54 844.699C1294.65 848.107 1287.48 851.874 1286.58 852.771C1285.51 853.847 1283.17 854.564 1281.2 854.564C1279.05 854.564 1274.57 855.461 1271.16 856.358C1267.75 857.255 1259.14 859.228 1252.33 860.842C1245.51 862.456 1235.29 864.25 1229.91 864.788C1224.53 865.146 1218.43 866.223 1216.46 867.119C1214.49 867.837 1208.03 868.913 1202.11 869.451C1196.2 870.169 1176.83 871.962 1159.07 873.397C1141.32 875.011 1119.08 877.343 1109.76 878.778C1100.93 879.965 1085.53 882.277 1074.79 883.889L1072.99 884.159C1062.23 885.773 1048.42 888.105 1042.5 889.539C1036.59 890.974 1023.67 893.844 1013.81 895.638C1003.95 897.611 993.007 899.584 989.6 900.122C986.193 900.66 975.253 903.171 965.389 905.861C955.526 908.372 937.413 913.215 925.039 916.443C912.664 919.851 896.524 924.335 889.171 926.308C881.818 928.281 870.52 931.51 864.064 933.303C857.608 935.276 844.337 938.864 834.473 941.733C824.61 944.424 808.111 949.266 797.709 952.674C787.308 956.082 774.395 960.028 769.015 961.284C763.635 962.539 752.337 965.767 743.908 968.458C735.479 970.969 723.464 974.736 717.007 976.529C710.551 978.323 699.253 981.013 691.9 982.448C684.547 984.062 671.994 986.215 664.103 987.47C656.212 988.546 648.859 990.161 647.604 990.699C646.528 991.237 656.929 991.954 670.918 992.133C684.906 992.313 711.269 991.775 729.561 990.699C747.853 989.802 771.167 988.546 781.569 988.008C791.97 987.65 804.883 986.753 810.263 986.394C815.643 986.035 832.68 984.062 847.924 982.089C863.167 979.937 881.818 977.426 889.171 976.529C896.524 975.453 905.491 974.198 908.898 973.659C912.306 973.301 920.734 972.045 927.729 971.148C934.723 970.072 954.809 966.664 972.563 963.615C990.317 960.566 1019.37 955.006 1037.12 951.06C1054.88 947.114 1073.35 943.168 1078.37 942.271C1083.21 941.554 1097.38 937.967 1109.76 934.559C1122.13 931.151 1143.11 924.873 1156.38 920.748C1169.65 916.623 1193.15 908.552 1208.39 902.633C1223.63 896.714 1240.67 889.719 1246.05 887.028C1251.43 884.159 1260.76 878.599 1266.68 874.473C1272.59 870.348 1278.33 867.119 1279.23 867.119C1280.13 867.119 1283.35 868.913 1286.4 871.065C1289.27 873.397 1293.4 876.984 1299.85 883.262L1290.17 911.421C1284.97 927.026 1277.97 948.19 1274.75 958.593C1271.7 968.996 1267.21 982.269 1265.06 988.188C1262.73 994.106 1255.56 1016.71 1248.92 1038.41C1242.29 1060.11 1235.83 1081.1 1234.75 1085.04C1233.68 1088.99 1232.78 1094.19 1232.78 1096.7C1232.78 1099.21 1233.86 1106.03 1234.93 1111.95C1236.19 1117.86 1239.42 1132.03 1241.93 1143.33C1244.44 1154.63 1247.13 1164.86 1247.85 1165.75C1248.38 1166.65 1250.54 1173.65 1252.33 1181C1254.12 1188.35 1259.68 1204.5 1264.34 1216.87C1269.19 1229.25 1275.64 1246.11 1278.69 1254.54C1281.56 1262.97 1285.33 1272.29 1286.94 1275.16C1288.38 1278.03 1290.35 1283.41 1291.07 1286.82C1291.78 1290.23 1294.83 1302.79 1298.06 1314.62C1302.54 1332.2 1303.8 1340.81 1304.7 1362.15C1305.41 1382.24 1305.05 1391.39 1302.72 1402.51C1301.11 1410.4 1296.98 1424.03 1293.58 1433C1290.17 1441.97 1283.71 1454.34 1279.41 1460.8C1275.28 1467.26 1267.75 1476.94 1262.73 1482.32C1257.89 1487.71 1246.23 1497.93 1236.91 1504.92C1227.58 1511.74 1217.9 1518.91 1215.03 1520.53C1212.34 1522.14 1201.22 1527.16 1190.46 1531.65C1179.7 1536.13 1164.45 1541.33 1156.74 1543.31C1149.21 1545.46 1134.5 1548.69 1124.1 1550.66C1113.7 1552.45 1096.84 1554.61 1067.61 1556.4L1060.62 1578.1C1056.85 1590.12 1052.91 1601.42 1051.83 1603.39C1050.75 1605.37 1043.58 1624.74 1035.69 1646.44C1027.98 1668.14 1020.63 1689.13 1019.37 1693.07C1018.29 1697.02 1016.86 1701.14 1016.14 1702.04C1015.6 1702.94 1011.66 1712.8 1007.53 1723.56C1003.59 1734.33 997.491 1751.01 994.263 1760.33C990.855 1769.66 981.35 1795.85 972.922 1818.63C964.493 1841.4 954.271 1868.85 950.325 1879.61C946.2 1890.37 940.282 1906.51 937.233 1915.48C934.185 1924.45 928.984 1938.08 925.756 1945.97C922.528 1953.86 916.072 1970.18 911.588 1982.2C907.105 1994.4 903.518 2004.8 903.518 2005.52C903.518 2006.42 898.317 2019.87 891.861 2035.65C885.584 2051.43 874.824 2079.24 867.83 2097.53C860.836 2115.82 852.766 2136.81 849.717 2144.16C846.489 2151.52 840.571 2166.94 836.267 2178.24C831.963 2189.54 827.3 2201.2 825.865 2204.25C824.43 2207.3 821.561 2213.58 819.409 2218.6C817.436 2223.44 810.442 2240.84 803.986 2257.16C797.35 2273.48 790.894 2289.09 789.639 2292.14C788.204 2295.19 784.976 2302.36 782.466 2308.28C779.775 2314.2 770.809 2333.57 762.2 2351.32C753.592 2369.08 743.011 2389.35 738.349 2396.17C733.686 2402.98 728.126 2410.51 725.795 2412.49C723.464 2414.64 718.98 2416.97 716.111 2417.69C712.883 2418.41 708.22 2417.87 704.454 2416.25C701.046 2414.82 695.128 2410.33 691.362 2406.39C687.776 2402.26 680.243 2389.35 674.684 2377.69C669.124 2366.21 661.054 2349.53 656.929 2340.56C652.805 2331.6 642.403 2307.38 633.974 2286.76C625.545 2266.13 618.372 2247.48 618.193 2245.5C617.834 2243.53 616.937 2241.56 616.399 2241.02C615.861 2240.48 613.709 2235.64 611.557 2230.26C609.584 2224.88 604.204 2210.71 599.542 2198.87C595.058 2187.03 584.657 2160.31 576.766 2139.68C568.875 2119.05 560.805 2097.89 559.191 2093.05C557.397 2088.02 552.914 2076.37 549.327 2067.04C545.74 2057.71 541.795 2046.77 540.54 2042.83C539.284 2038.88 536.953 2032.78 535.339 2029.37C533.904 2025.97 530.676 2017.36 528.165 2010.54C525.655 2003.72 519.378 1986.69 514.356 1972.88C509.335 1959.06 503.596 1943.64 501.803 1938.8C499.83 1933.77 494.629 1919.43 490.146 1906.51C485.662 1893.6 478.668 1874.76 474.902 1864.36C471.136 1853.96 456.969 1814.5 443.518 1776.48C430.247 1738.45 418.59 1705.81 417.694 1703.83C416.797 1701.86 408.189 1677.65 398.684 1650.03C389.179 1622.41 381.109 1598.37 381.109 1596.58C380.93 1594.96 380.392 1593.53 379.854 1593.53C379.315 1593.53 377.522 1589.4 375.908 1584.2C374.115 1579 371.783 1574.34 370.528 1573.62C369.273 1573.08 357.257 1573.26 343.986 1573.98C330.715 1574.7 309.195 1574.87 296.462 1574.52C283.729 1573.98 265.436 1572.36 256.111 1570.75C246.785 1569.31 232.259 1565.55 223.83 1562.68C215.401 1559.63 202.489 1554.43 195.136 1551.02C187.783 1547.61 175.23 1540.62 167.339 1535.24C159.448 1530.03 147.791 1521.07 141.514 1515.15C135.238 1509.41 125.374 1499.18 119.815 1492.19C114.255 1485.19 106.544 1472.82 102.419 1464.39C98.4735 1455.96 93.452 1443.94 91.4793 1437.48C89.5066 1431.03 87.3546 1420.98 86.4579 1415.06C85.5612 1406.81 84.1265 1403.41 80.7191 1400.72C78.3877 1398.74 71.5729 1392.64 65.4754 1387.26C59.5573 1381.88 51.4871 1372.56 47.7211 1366.64C43.955 1360.72 38.3955 1348.16 35.3468 1338.84C30.684 1324.49 29.7873 1318.39 29.4287 1299.38C29.07 1286.82 29.7873 1270.68 31.0427 1262.61C32.2981 1254.72 35.7055 1242.16 38.3955 1234.81C41.0856 1227.45 45.7484 1217.77 48.6177 1213.28C51.6665 1208.62 55.4326 1199.47 57.2259 1191.76C59.0193 1184.41 62.4267 1172.75 65.1168 1165.75C67.6275 1158.76 73.1869 1147.64 77.3117 1140.64C81.4365 1133.65 90.9413 1121.99 98.2941 1114.64C105.647 1107.1 115.69 1097.96 120.532 1094.01C126.809 1088.81 130.754 1083.43 134.879 1074.28C138.286 1066.93 144.742 1057.42 150.481 1051.14C155.861 1045.4 162.856 1039.13 166.084 1037.33C169.132 1035.54 172.54 1032.49 173.436 1030.7C174.692 1028.54 172.181 1017.78 164.47 991.775C158.731 972.045 151.378 946.935 148.329 936.173C145.28 925.411 142.232 915.905 141.514 915.188C140.976 914.471 132.368 912.677 122.505 911.063C112.641 909.448 97.2181 905.682 88.4306 902.812C79.6431 899.763 70.8556 895.996 68.8829 894.382C67.0895 892.768 64.7581 891.333 63.5027 891.154C62.4267 891.154 57.4053 888.284 52.5632 885.055C47.7211 881.648 39.1129 874.473 33.7328 869.092C28.1733 863.532 20.6411 853.847 16.8751 847.39C13.109 840.933 8.62556 831.068 6.65285 825.328C4.85948 819.768 2.52809 809.545 1.45207 802.55C0.376046 794.658 0.196709 784.434 1.27273 775.108C2.16942 766.857 5.21815 754.122 8.08754 746.051C10.9569 738.159 15.6197 728.295 18.1304 723.99C20.8205 719.865 28.3526 710.717 35.1675 703.722C41.8029 696.727 52.7425 687.221 59.7366 682.558C66.7308 677.894 75.339 672.872 85.5612 668.926L85.3819 626.777C85.3819 598.797 86.2786 574.942 88.2513 555.93C89.8653 540.146 92.0173 522.748 92.914 517.367C93.9901 511.986 97.5768 492.615 100.984 474.321C105.826 448.493 106.902 439.883 105.468 435.758C104.571 432.709 100.088 427.687 95.2454 423.92C90.0446 420.154 84.4852 413.518 81.2571 407.778C76.2357 398.631 75.877 397.016 76.0563 379.26C76.2357 367.781 77.3117 356.481 79.2844 350.024C81.7951 341.056 83.2298 339.083 90.5826 334.42C95.4248 331.371 105.288 327.066 112.641 324.734C119.994 322.403 134.879 318.457 165.546 311.103L176.844 293.526C182.941 284.02 192.626 269.491 198.364 261.599C203.924 253.528 213.429 241.511 219.347 234.695C225.265 228.059 234.59 217.477 239.971 211.558C245.351 205.46 254.317 195.774 259.877 189.855C265.257 184.116 277.093 172.816 285.881 164.745C294.668 156.674 307.222 145.912 313.857 140.531C320.314 135.151 328.742 128.514 332.508 125.465C336.275 122.416 344.703 116.497 351.16 112.013C357.616 107.529 372.142 98.2024 383.44 91.2073C394.739 84.0329 415.9 72.1951 430.606 64.662C445.132 57.1289 457.148 51.3893 457.327 51.9274C457.686 52.4655 459.121 51.5687 460.555 50.1338C461.99 48.5196 464.501 47.2641 465.935 47.4434C467.37 47.4434 474.185 45.1117 481.179 42.242C488.173 39.5516 503.776 33.8121 516.15 29.5074C528.524 25.3821 543.05 20.8981 548.43 19.6426C553.811 18.3871 565.468 15.6967 574.434 13.7237C583.401 11.7508 599.542 8.70163 610.302 7.08739Z" fill="#0A0C0C"/>
<path d="M647.066 39.0136C660.337 38.4755 671.456 37.9374 671.635 37.7581C671.815 37.5787 684.368 37.5787 699.432 37.7581C714.497 37.9374 735.659 38.6549 746.598 39.3723C757.358 39.9104 769.195 41.1659 772.602 42.0627C776.009 42.9595 784.08 44.9325 790.536 46.3673C796.992 47.9816 806.676 50.1339 812.056 51.2101C817.436 52.2862 828.735 54.7973 837.164 56.7702C845.592 58.7432 855.635 61.2542 859.581 62.6891C863.526 63.9446 869.086 66.2763 872.134 67.7112C875.004 69.1461 887.557 74.1682 899.932 78.8315C912.306 83.4949 926.832 89.4138 932.212 92.1042C937.592 94.7946 947.635 100.534 954.629 105.018C961.444 109.323 969.335 114.165 972.025 115.6C974.536 117.035 980.275 120.264 984.579 122.595C988.703 124.927 998.208 130.846 1005.2 135.509C1012.38 140.352 1029.77 153.804 1043.58 165.463C1057.57 176.942 1074.25 191.649 1080.88 198.106C1087.34 204.563 1100.07 217.836 1109.22 227.7C1118.18 237.565 1128.95 249.762 1133.07 254.605C1137.19 259.627 1142.04 266.442 1144.01 269.85C1145.8 273.258 1151.9 282.226 1157.28 289.58C1162.66 296.934 1170.01 308.233 1173.78 314.69C1177.37 321.147 1181.13 326.528 1181.85 326.887C1182.57 327.066 1190.1 341.415 1198.53 358.633C1206.96 375.852 1213.77 390.56 1213.77 391.456C1213.77 392.174 1195.48 393.788 1173.06 395.044C1150.47 396.478 1125.36 398.272 1116.93 399.169C1108.5 400.066 1086.8 402.039 1068.51 403.653C1050.22 405.088 1029.23 406.702 1021.88 407.419C1008.97 408.316 1008.07 408.137 997.67 402.039C991.752 398.631 983.682 394.864 979.737 393.609C975.791 392.353 960.368 385.537 945.662 378.363C930.777 371.009 910.692 362.221 900.828 358.633C890.965 355.046 880.025 351.459 876.618 350.562C873.21 349.845 862.271 346.975 852.407 344.643C842.544 342.132 827.121 338.724 818.333 337.29C806.676 335.137 790.177 334.42 760.048 334.42C731.713 334.42 713.241 335.317 703.557 337.11C695.666 338.366 685.086 340.518 680.243 341.594C675.222 342.67 663.924 345.899 655.136 348.769C646.169 351.638 634.154 357.019 628.236 360.606C622.318 364.194 611.916 372.085 592.727 389.125L571.924 387.69C560.446 386.972 549.507 385.896 547.534 385.537C545.561 385.179 536.594 384.282 527.807 383.744C518.84 383.206 506.824 381.771 500.906 380.515C490.863 378.363 489.07 377.108 473.468 361.683C464.501 352.535 452.844 343.029 447.643 340.339C442.622 337.469 433.117 332.626 426.661 329.218C420.205 325.99 408.368 320.968 400.477 318.098C392.587 315.228 383.261 312.538 379.854 312C376.446 311.641 365.865 309.668 356.54 307.695C347.214 305.722 326.591 303.211 310.809 302.135C295.027 300.879 270.817 300.521 257.008 301.059C243.199 301.597 227.238 302.494 211.277 303.929L221.32 289.221C226.879 280.97 234.411 270.747 237.998 266.263C241.585 261.958 246.965 255.86 250.193 252.811C253.242 249.941 264.002 238.103 274.045 226.804C283.908 215.504 294.31 204.563 297.179 202.59C300.049 200.617 309.912 192.008 319.058 183.399C328.384 174.969 338.965 165.642 342.552 162.772C346.318 160.082 355.822 153.266 363.713 147.885C371.783 142.504 381.647 135.689 385.592 132.64C389.717 129.59 394.201 126.541 395.994 125.465C397.608 124.389 400.119 122.775 401.553 121.519C402.988 120.443 415.721 113.448 430.068 106.094C444.415 98.7405 460.555 90.4899 465.936 87.6202C471.495 84.7504 478.31 81.5219 481.179 80.2664C484.228 79.0109 501.803 72.9127 520.633 66.4557C539.284 60.1781 560.267 53.7211 567.261 52.1069C574.076 50.672 587.526 47.9816 596.852 46.5467C606.177 44.9325 615.861 42.7801 618.372 41.704C620.883 40.8072 633.795 39.5517 647.066 39.0136Z" fill="#0FDFBF"/>
<path d="M494.809 455.667C503.238 447.775 508.797 444.188 514.536 442.753C518.84 441.498 524.399 440.601 526.91 440.422C529.421 440.242 534.263 441.139 537.67 442.215C541.078 443.471 546.279 446.161 548.969 448.134C551.659 450.286 558.653 455.488 564.212 459.972C569.951 464.456 576.228 468.94 578.021 470.016C579.994 471.092 582.505 473.962 583.76 476.294C584.836 478.625 586.809 486.159 587.885 493.154C588.961 500.149 591.471 510.551 593.444 516.47C595.238 522.389 599.362 530.819 602.232 535.303C605.101 539.787 607.612 543.912 607.612 544.63C607.612 545.527 613.171 553.598 619.986 562.566C626.801 572.072 637.203 583.192 643.659 588.394C649.935 593.416 659.62 600.052 665 602.922C670.38 605.792 684.906 611.711 697.28 615.836C711.986 620.858 725.257 624.086 735.838 625.163C744.625 626.239 756.282 627.315 761.304 627.853C769.912 628.57 770.988 629.109 771.885 633.413C772.602 636.283 774.216 640.588 775.471 643.278C777.803 647.941 777.624 649.018 772.602 656.371C769.553 660.855 765.07 665.877 762.201 667.492C759.51 669.106 754.13 673.411 750.006 676.998C746.06 680.406 739.604 685.966 735.659 689.374C731.893 692.781 721.312 699.597 712.524 704.44C703.557 709.462 687.417 718.071 676.657 723.99C665.717 729.73 650.832 736.366 643.479 738.877C636.127 741.388 616.758 745.872 600.438 748.921C578.739 752.867 565.826 754.302 552.017 754.302C541.616 754.123 525.475 753.585 516.15 753.046C506.824 752.508 490.146 749.639 479.386 746.948C468.446 744.078 453.382 740.133 445.67 738.16C438.138 736.007 425.943 731.523 418.77 728.115C411.776 724.528 404.244 720.762 402.45 719.506C400.477 718.251 397.249 715.919 395.277 713.946C393.125 712.152 388.283 708.565 384.337 706.054C380.392 703.543 372.501 697.983 366.762 693.678C361.203 689.553 356.002 685.966 355.105 685.966C354.388 686.145 347.394 679.329 339.503 671.079C331.612 662.828 321.21 650.811 316.368 644.534C309.553 635.565 307.76 631.978 308.657 628.57C309.195 626.059 310.809 619.602 312.423 614.222C313.858 608.841 315.651 602.204 316.189 599.335C316.727 596.465 318.7 593.775 321.031 592.878C323.362 591.981 329.101 590.546 334.123 589.47C338.965 588.573 348.29 586.242 354.746 584.627C361.203 582.834 370.887 579.426 376.267 576.915C381.647 574.404 386.668 572.072 387.386 571.713C388.283 571.355 388.821 577.812 388.641 585.883C388.641 597.182 389.538 603.46 392.587 611.531C394.739 617.45 397.07 622.652 397.787 623.19C398.505 623.728 401.195 628.032 403.526 633.055C406.037 637.897 411.596 645.072 415.9 648.838C420.384 652.605 430.606 658.344 439.932 661.931C451.768 666.595 460.017 668.747 471.316 669.644C479.744 670.182 489.429 670.182 492.836 669.644C496.243 668.927 505.928 665.519 514.357 661.931C525.655 657.089 532.111 652.963 539.105 645.968C544.306 640.946 548.431 635.924 548.431 634.848C548.431 633.772 550.403 630.543 552.735 627.674C555.066 624.804 558.294 619.064 559.729 615.118C561.164 611.173 562.957 605.971 563.495 603.46C564.033 600.949 563.495 597.541 562.24 595.927C560.267 593.057 558.832 593.954 546.637 605.612C539.284 612.607 530.676 619.423 527.807 620.858C524.758 622.113 521.171 624.086 519.737 624.983C518.302 625.88 512.922 628.391 508.08 630.723C500.548 634.131 495.885 634.669 479.206 634.848C460.017 634.848 459.121 634.669 452.306 629.467C448.54 626.598 442.263 621.037 438.497 617.45C434.91 613.684 430.965 609.02 430.068 607.047C428.992 605.074 428.275 597.182 428.275 589.47C428.275 581.937 429.171 572.251 430.068 567.947C431.144 563.821 434.193 557.006 437.062 552.701C439.932 548.576 445.132 542.478 448.719 539.249C452.665 535.841 459.838 532.075 467.191 529.743C474.006 527.77 484.945 525.618 491.939 525.08C500.548 524.542 508.08 525.259 516.15 527.232C522.606 528.846 533.008 531.357 539.464 532.971C545.92 534.406 551.3 535.303 551.659 534.944C551.838 534.586 551.479 531.895 550.762 529.026C550.045 525.976 544.844 519.161 538.746 512.883C530.856 505.171 525.117 501.225 517.943 498.714C512.563 496.741 506.107 494.947 503.596 494.768C501.086 494.588 493.195 493.692 486.021 492.974C478.848 492.077 473.288 491.001 473.468 490.463C473.826 489.925 475.978 484.365 478.489 478.087C482.076 469.119 485.483 464.456 494.809 455.667Z" fill="#0FDFBF"/>
<path d="M993.008 485.441C995.339 483.827 1001.97 477.729 1007.71 471.989C1017.4 462.304 1018.29 461.766 1024.75 462.483C1028.7 463.021 1046.27 463.918 1064.03 464.456C1081.78 464.994 1121.77 466.25 1152.8 467.146C1183.82 468.043 1215.74 469.299 1223.64 469.837C1231.53 470.375 1239.24 471.272 1240.67 471.63C1242.47 472.168 1244.44 477.908 1246.59 489.925C1248.38 499.611 1250.54 510.372 1251.43 513.78C1252.33 517.188 1253.58 524.542 1254.12 529.922C1254.66 535.303 1255.2 560.772 1255.56 586.421C1255.74 612.069 1255.2 640.408 1254.48 649.197C1253.76 657.986 1252.51 667.85 1251.61 670.72C1250.72 673.59 1249.46 678.253 1248.92 680.944C1248.2 683.993 1242.47 691.167 1234.75 698.7C1227.76 705.695 1217.36 714.484 1211.98 718.251C1206.6 722.017 1200.14 725.963 1197.63 727.039C1195.12 728.115 1189.56 731.344 1185.26 734.034C1180.95 736.725 1176.83 739.953 1176.29 741.388C1175.39 743.54 1176.65 743.72 1184.18 742.644C1189.02 741.747 1194.76 740.85 1196.73 740.491C1198.71 740.133 1203.19 739.415 1206.6 738.877C1210.01 738.339 1216.1 737.083 1220.05 736.007C1223.99 734.931 1231.71 731.523 1237.09 728.474C1242.47 725.604 1248.2 722.197 1249.82 721.12C1251.43 720.044 1257.71 713.228 1263.81 706.054C1269.72 699.059 1275.82 690.988 1277.26 688.118C1278.69 685.428 1281.38 678.074 1283.35 671.617C1285.51 665.16 1287.66 656.371 1288.2 651.887C1288.91 647.403 1289.63 642.381 1290.17 640.588C1290.89 637.897 1291.42 637.718 1295.73 640.049C1298.6 641.484 1307.92 649.376 1316.89 657.627C1325.68 666.057 1335.9 677.177 1339.31 682.558C1343.25 689.015 1346.48 697.445 1348.81 707.489C1351.32 718.609 1352.04 727.219 1351.32 738.877C1350.61 752.867 1349.71 756.454 1344.51 766.498C1340.2 774.39 1335.18 780.489 1328.19 786.228C1322.45 790.712 1310.43 798.783 1301.29 804.164C1292.14 809.365 1278.87 815.643 1272.06 817.975C1265.24 820.307 1259.14 821.921 1258.61 821.383C1258.07 821.024 1255.38 821.562 1252.33 822.459C1249.28 823.356 1244.62 824.611 1241.57 824.97C1238.52 825.508 1232.96 826.584 1229.02 827.66C1225.07 828.557 1212.52 830.53 1201.22 832.144C1189.92 833.579 1178.98 834.297 1177.01 833.758C1175.03 833.22 1164.1 834.117 1152.8 835.732C1141.5 837.346 1124.46 839.319 1115.14 840.216C1105.81 841.112 1090.03 843.623 1080.17 845.596C1070.3 847.749 1057.39 850.26 1051.47 851.156C1045.55 852.053 1033.36 854.206 1024.57 855.641C1015.6 857.255 993.904 861.739 976.15 865.685C958.395 869.451 937.413 874.653 929.522 876.984C921.631 879.495 914.099 881.468 912.844 881.468C911.768 881.468 909.257 882.186 907.464 883.083C905.85 883.979 895.089 887.208 883.791 890.257C872.493 893.306 862.091 895.817 860.836 895.817C859.76 895.817 851.331 898.328 842.544 901.198C833.577 904.068 825.507 906.579 824.61 906.579C823.534 906.579 820.126 907.655 816.898 908.91C813.85 910.345 802.731 914.112 792.329 917.34C781.928 920.569 769.374 924.694 764.532 926.308C759.51 928.102 752.337 930.075 748.392 930.613C744.446 931.151 734.762 933.303 726.871 935.456C718.98 937.429 709.834 940.298 706.606 941.733C703.557 943.168 699.971 943.886 699.074 943.348C697.998 942.81 694.232 943.706 690.466 945.141C686.879 946.755 681.319 947.832 678.45 947.832C675.401 947.832 670.201 948.549 666.793 949.446C663.386 950.343 655.316 952.136 648.859 953.212C641.865 954.468 621.242 955.185 597.748 955.185C576.049 955.006 550.583 954.289 541.257 953.392C531.932 952.495 515.791 949.984 505.39 947.832C494.988 945.679 478.489 941.375 468.626 938.326C458.762 935.456 444.774 930.254 437.6 926.846C430.606 923.618 424.15 920.928 423.253 920.928C422.536 920.928 419.487 919.672 416.618 918.058C413.569 916.444 405.499 912.856 398.684 909.987C391.69 907.117 380.93 901.377 374.474 897.073C368.197 892.947 361.561 888.284 359.947 886.849C358.333 885.414 349.904 878.957 341.296 872.5C332.688 866.043 323.542 859.407 321.031 857.613C318.341 855.999 315.83 853.847 315.292 853.129C314.754 852.233 311.347 849.363 307.401 846.314C303.635 843.444 295.027 834.835 288.571 827.122C282.115 819.41 274.403 810.083 271.713 806.496C268.844 802.909 265.437 798.245 264.002 796.272C262.746 794.299 261.132 793.044 260.594 793.582C260.056 794.12 260.953 800.577 262.388 807.931C264.002 815.284 268.306 827.84 272.072 835.732C275.838 843.623 281.039 852.771 283.729 855.82C288.033 861.201 288.033 861.918 285.164 863.174C283.55 864.07 277.631 866.043 272.251 867.658C266.871 869.272 252.345 872.68 239.971 875.37C219.347 879.675 214.325 880.033 178.099 879.675C156.4 879.675 138.286 879.137 137.748 878.778C137.21 878.419 132.189 877.702 126.45 877.164C120.891 876.626 111.924 874.653 106.723 873.038C101.702 871.424 95.4249 868.554 92.9142 866.761C90.4034 864.967 87.534 863.532 86.6374 863.532C85.5613 863.532 80.3605 860.663 74.9804 857.075C69.6003 853.488 61.3508 846.852 56.5087 842.188C51.8459 837.704 46.2865 830.351 44.3138 825.867C42.1617 821.383 39.113 810.98 37.3196 802.55C35.1676 791.609 34.8089 785.331 35.8849 780.13C36.7816 776.184 38.3957 769.368 39.2923 764.884C40.189 760.4 43.5964 751.97 46.4658 746.051C50.0526 739.236 55.9707 731.703 62.9648 725.425C69.0623 720.044 76.5945 713.767 79.8225 711.435C83.0506 709.283 87.3547 707.489 89.3274 707.489C91.7186 707.489 92.6153 708.386 92.0175 710.179C91.4795 711.614 91.8381 714.663 92.7348 716.816C93.6315 719.147 95.2455 726.142 96.5009 732.599C97.7563 739.056 100.626 748.742 103.136 754.123C105.468 759.503 110.669 768.292 114.614 773.314C120.532 781.385 123.043 783.179 130.934 785.331C136.134 786.766 150.84 789.098 163.752 790.712C176.485 792.326 194.598 793.941 203.565 794.479C213.787 795.017 220.602 794.658 221.14 793.582C221.678 792.685 219.885 790.891 217.015 789.995C214.325 788.918 210.739 787.304 208.945 786.407C207.331 785.331 196.033 781.206 183.838 777.26C171.823 773.135 158.193 767.933 153.351 765.602C148.688 763.27 142.949 761.297 140.439 761.297C136.852 761.297 135.596 760.042 134.341 755.378C133.265 752.329 131.292 743.182 129.858 735.29C128.423 727.398 126.092 711.255 125.016 699.418C123.76 686.683 122.863 653.322 123.043 617.809C123.222 571.355 123.76 554.136 126.092 541.581C127.706 532.792 129.32 522.748 129.678 519.519C130.216 516.47 131.113 513.78 131.83 513.78C132.727 513.78 135.058 516.47 137.21 519.699C139.362 522.748 147.612 531.895 155.503 539.787C163.573 547.679 174.333 557.006 179.534 560.414C184.735 563.821 200.5 577 240.867 591.802C258.5 595.5 256.47 593.954 279.604 597.182L273.865 605.254C270.817 609.738 264.361 617.271 259.877 622.293C255.394 627.136 248.22 634.131 243.737 637.539C239.433 640.946 231.004 649.914 225.086 657.268C219.168 664.622 213.249 673.231 212.173 676.101C210.918 678.971 209.483 683.275 208.766 685.428C207.869 689.194 208.228 689.553 213.429 688.656C216.657 688.297 224.189 686.145 230.107 684.172C236.025 682.02 243.737 678.612 247.144 676.639C250.552 674.487 257.008 669.823 261.491 666.236C265.975 662.649 271.713 658.344 274.403 656.73C277.273 655.116 279.425 654.219 279.425 654.936C279.425 655.833 282.653 660.317 286.419 665.339C290.364 670.182 295.207 675.922 297.179 677.895C299.152 679.867 300.766 682.199 300.945 683.275C300.945 684.352 309.553 693.319 320.134 703.364C330.895 713.408 345.6 726.142 352.953 731.703C360.306 737.263 371.245 744.258 377.164 747.128C383.082 750.177 389.897 753.585 392.407 755.019L392.411 755.021C394.929 756.28 404.607 761.12 413.928 765.422C423.253 769.906 436.166 775.108 442.622 777.081C449.078 779.054 463.604 783 474.902 785.69C494.629 790.533 497.319 790.712 541.257 790.712C584.657 790.712 588.243 790.533 610.302 785.869C623.035 783 644.555 776.722 657.826 771.7C671.097 766.678 684.906 761.297 688.314 759.503C691.721 757.889 696.922 755.916 699.971 755.199C702.84 754.481 711.807 749.997 719.698 745.334C727.588 740.85 735.3 736.007 736.735 734.752C738.169 733.675 742.653 729.909 746.778 726.86L746.966 726.712C751.103 723.474 757.603 718.386 761.842 715.56C766.146 712.69 776.727 703.543 785.514 695.292C794.302 687.042 802.91 680.585 804.883 680.585C806.855 680.585 810.622 682.378 813.312 684.531C816.181 686.862 820.664 690.45 823.713 692.423C826.583 694.575 832.68 697.265 837.164 698.521C841.647 699.956 845.951 701.57 847.027 702.288C847.924 703.005 852.407 704.978 856.891 706.592C861.374 708.206 869.265 709.821 874.286 710.179C881.28 710.897 883.791 710.538 883.612 708.744C883.612 707.668 883.074 705.157 882.357 703.543C881.639 701.929 875.9 694.754 869.444 687.58C862.988 680.406 850.434 669.106 841.647 662.47C832.68 655.833 823.893 648.121 821.74 645.251C819.768 642.561 816.719 637.538 815.105 634.31C813.312 631.261 812.056 628.391 812.056 628.032C812.056 627.853 816.719 626.598 822.279 625.521C828.017 624.266 839.854 620.858 848.82 617.809C857.608 614.939 888.5 600 892.758 597.541C892.579 597.362 895.986 594.851 900.29 591.981C904.594 589.111 912.306 583.013 917.686 578.529C922.887 574.045 931.136 565.436 935.799 559.517C940.462 553.598 948.353 541.043 953.374 531.716C958.216 522.389 963.238 511.09 964.493 506.606C965.569 502.122 967.9 497.099 969.514 495.306C971.308 493.692 976.15 491.36 980.633 490.463C985.117 489.387 990.676 487.235 993.008 485.441Z" fill="#0FDFBF"/>
<path fill-rule="evenodd" clip-rule="evenodd" d="M308.119 896.893C311.885 897.611 317.624 900.839 322.466 905.144C326.949 909.09 333.047 913.574 335.916 915.188C338.785 916.623 347.752 922.183 355.643 927.205C363.534 932.407 375.191 939.402 381.647 942.989C388.103 946.397 398.863 951.239 405.857 953.75C412.852 956.262 422.895 960.207 428.275 962.718C433.655 965.05 442.98 968.458 448.898 969.893C454.817 971.507 468.626 974.915 479.744 977.785C490.863 980.475 499.651 982.986 499.471 983.166C499.292 983.345 490.146 982.269 479.386 980.834C468.625 979.399 457.148 977.426 454.279 976.529C451.409 975.632 444.774 974.736 439.932 974.556C434.91 974.377 427.378 973.121 422.895 971.866C418.411 970.61 411.596 969.175 407.651 968.817C403.705 968.279 391.152 965.588 379.854 962.539C368.555 959.669 355.464 956.261 350.622 955.185C345.959 954.109 340.399 953.212 338.247 953.212C335.916 953.212 330.536 951.957 326.052 950.522C321.569 948.908 307.043 944.603 293.772 940.657C280.501 936.711 261.85 931.151 252.524 928.102C243.199 925.232 231.004 921.286 215.76 915.905L224.727 914.65C229.748 914.112 238.177 912.498 243.557 911.063C248.937 909.628 255.394 908.372 257.904 908.372C260.415 908.372 271.355 905.503 282.115 902.095C296.103 897.79 303.635 896.176 308.119 896.893ZM1240.31 931.869C1241.39 931.689 1242.47 933.303 1242.47 935.276C1242.47 937.249 1240.85 943.168 1239.06 948.19C1237.09 953.392 1231.35 970.79 1226.5 986.753C1221.48 1002.9 1216.64 1015.99 1215.56 1015.99C1214.67 1015.99 1213.23 1013.84 1212.7 1010.97C1212.16 1008.28 1209.65 1001.64 1207.14 996.259C1204.63 990.878 1198.17 981.013 1192.79 974.198C1187.59 967.561 1182.57 961.822 1181.49 961.284C1180.59 960.746 1179.7 958.952 1179.7 956.979C1179.7 954.647 1182.03 952.854 1187.23 950.881C1191.53 949.446 1198.17 947.114 1202.11 946.038C1206.06 944.782 1212.52 942.092 1216.46 940.119C1220.41 938.146 1226.86 935.635 1230.81 934.38C1234.75 933.124 1239.06 932.048 1240.31 931.869ZM191.191 947.832C192.805 947.832 195.316 948.728 196.75 949.805C198.006 950.881 201.772 951.957 204.821 952.316C207.869 952.674 216.477 955.365 223.83 958.234C231.183 961.104 241.764 965.23 247.144 967.202C255.035 970.072 257.366 971.866 258.442 975.812C259.16 978.682 260.953 984.959 262.388 989.981C263.643 994.824 264.36 999.487 264.002 1000.2C263.643 1001.1 260.236 1002 256.649 1002.36C252.883 1002.9 244.992 1004.15 239.074 1005.23C233.156 1006.3 225.982 1008.28 222.934 1009.71C220.064 1010.97 215.581 1012.58 213.07 1013.3C208.945 1014.37 208.407 1013.84 207.152 1007.56C206.255 1003.79 203.924 995.003 201.951 988.188C199.978 981.193 197.826 974.736 197.109 973.839C196.571 972.942 194.24 966.844 192.088 960.387C189.756 953.93 187.963 948.549 187.963 948.19C187.963 948.011 189.398 947.832 191.191 947.832ZM272.072 974.198L277.093 975.274C279.783 975.812 284.626 976.888 287.495 977.426C290.544 978.143 294.489 979.22 296.462 980.116C298.435 981.013 302.021 982.089 304.532 982.627C307.043 982.986 314.754 985.138 321.569 986.932C328.563 988.905 343.089 992.492 353.85 995.003C364.61 997.514 380.75 1000.56 389.717 1001.64C398.684 1002.9 409.982 1004.87 414.824 1006.3C419.846 1007.74 428.633 1009.17 434.551 1009.71C440.47 1010.25 446.388 1011.5 447.643 1012.4C449.257 1013.66 449.257 1015.63 448.002 1019.93C446.926 1023.16 446.208 1029.62 446.208 1034.28C446.208 1039.13 446.029 1042.89 445.85 1042.89C445.491 1042.89 438.497 1039.66 430.068 1035.54C421.639 1031.41 406.395 1024.96 395.994 1021.01C385.592 1017.06 372.321 1012.94 366.403 1011.5C360.485 1010.07 353.312 1008.1 350.263 1007.02C347.394 1005.94 335.916 1003.79 325.156 1002.36C314.396 1000.74 302.201 1000.03 298.255 1000.38C293.951 1001.1 290.006 1000.56 288.392 999.308C286.778 998.052 283.908 994.286 281.936 990.878C279.963 987.47 276.914 982.269 275.121 979.399L272.072 974.198ZM1132.71 977.426C1143.65 977.964 1149.03 979.22 1157.46 983.345C1163.92 986.573 1170.73 991.775 1174.68 996.618C1178.08 1000.74 1183.28 1008.63 1185.79 1013.66C1189.02 1019.93 1191.18 1028.18 1192.25 1037.87C1193.15 1046.12 1194.4 1064.77 1194.94 1079.66C1195.66 1094.37 1196.56 1109.44 1197.09 1112.84C1197.63 1116.25 1199.25 1123.96 1200.86 1129.88C1202.29 1135.8 1203.73 1142.62 1203.91 1145.13C1204.27 1147.64 1208.03 1162.53 1212.7 1178.31C1217.36 1194.09 1223.81 1214.18 1227.22 1223.15C1230.45 1231.94 1237.62 1250.23 1243 1263.51C1248.38 1276.78 1254.48 1292.92 1256.81 1299.38C1258.96 1305.83 1262.37 1319.11 1264.17 1328.97C1266.5 1340.27 1267.75 1354.62 1267.75 1367.89C1267.75 1379.91 1266.5 1394.8 1264.88 1401.97C1263.45 1409.15 1258.79 1421.88 1254.66 1430.31C1248.74 1442.33 1243.72 1448.78 1231.71 1460.8C1223.46 1469.23 1211.62 1478.92 1205.7 1482.5C1199.96 1486.27 1191 1491.11 1186.15 1493.62C1181.13 1496.14 1171.81 1499.9 1165.53 1501.88C1159.07 1504.03 1144.91 1508.15 1134.15 1510.84C1123.21 1513.71 1109.04 1516.58 1102.76 1517.12C1096.31 1517.66 1078.19 1518.2 1062.41 1518.2C1046.27 1518.2 1025.29 1516.94 1014.89 1515.51C1004.48 1514.07 994.442 1512.46 992.469 1512.1C990.497 1511.74 981.53 1509.59 972.742 1507.44C963.775 1505.46 947.994 1501.16 937.772 1498.11C927.37 1495.24 908.719 1488.96 896.524 1484.48C884.15 1479.99 869.265 1474.61 863.347 1472.64C857.428 1470.49 845.592 1465.64 837.343 1461.7C828.914 1457.75 811.16 1449.14 797.889 1442.33C784.438 1435.69 772.961 1430.31 772.243 1430.31C771.526 1430.31 765.608 1427.26 759.152 1423.49C752.696 1419.91 744.446 1415.06 740.859 1412.91C737.093 1410.76 730.996 1407.17 727.05 1405.02C723.105 1402.87 718.622 1400.18 717.187 1398.92C715.573 1397.67 708.758 1393.72 701.943 1389.95C694.949 1386.37 685.982 1381.17 681.857 1378.65C677.912 1375.96 672.173 1372.2 669.304 1370.4C666.434 1368.61 661.951 1365.56 659.261 1363.77C656.571 1361.79 653.881 1360.36 653.522 1360.36C652.984 1360.36 647.963 1357.31 642.224 1353.54C636.485 1349.78 628.953 1344.76 625.366 1342.24C621.779 1339.91 612.633 1333.46 605.101 1328.08C597.39 1322.69 589.14 1317.13 586.809 1315.88C584.477 1314.8 581.608 1311.57 580.353 1309.06C578.559 1305.3 578.559 1302.79 580.353 1296.51C581.608 1292.2 582.505 1285.93 582.505 1282.7C582.505 1279.65 583.222 1276.06 584.119 1275.16C585.015 1274.09 588.243 1267.63 591.113 1260.82C593.982 1253.82 599.542 1243.78 603.308 1238.22C607.253 1232.66 614.247 1224.76 618.91 1220.64C625.366 1215.08 629.491 1212.93 635.947 1212.21C640.61 1211.49 647.783 1211.49 651.729 1211.85C655.674 1212.39 667.51 1216.87 678.091 1222.07C688.672 1227.1 697.998 1231.22 698.715 1231.22C699.432 1231.22 708.937 1235.7 719.877 1241.26C730.637 1247 744.805 1253.82 751.261 1256.33C757.538 1259.02 771.347 1265.3 781.748 1270.32C791.97 1275.34 806.317 1281.8 813.491 1284.85C820.664 1287.9 827.479 1290.41 828.735 1290.41C829.99 1290.41 834.294 1292.02 838.239 1293.82C842.185 1295.61 856.173 1301.53 869.623 1307.09C882.894 1312.47 900.29 1319.29 908.181 1322.16C916.072 1325.21 927.729 1328.97 934.185 1330.59C940.462 1332.38 949.787 1335.25 954.809 1337.22C959.651 1339.02 969.335 1342.24 976.329 1344.22C983.144 1346.37 995.339 1348.7 1003.23 1349.78C1011.12 1350.85 1019.55 1352.11 1022.06 1352.47C1024.39 1352.83 1030.13 1353.9 1034.61 1354.62C1038.92 1355.52 1052.37 1356.06 1064.2 1355.88C1081.78 1355.7 1087.34 1354.8 1095.59 1351.57C1100.97 1349.24 1106.53 1346.37 1108.14 1345.11C1109.58 1343.86 1111.73 1339.73 1112.98 1335.79C1114.24 1332.02 1115.14 1325.74 1115.14 1321.8C1115.14 1317.85 1113.7 1308.88 1111.91 1302.07C1110.11 1295.07 1105.81 1282.16 1102.22 1273.37C1098.82 1264.4 1093.08 1248.26 1089.67 1237.5C1086.08 1226.56 1081.96 1210.95 1080.34 1202.52C1078.73 1194.09 1076.22 1183.15 1074.79 1178.31C1073.53 1173.29 1071.2 1161.63 1069.76 1152.3C1068.15 1142.98 1066 1121.09 1064.92 1103.87C1063.67 1086.66 1063.31 1064.42 1063.85 1054.55C1064.56 1042.18 1066.36 1031.77 1069.76 1020.65C1074.43 1006.3 1075.68 1004.15 1083.75 997.335C1088.77 993.389 1098.64 986.932 1105.81 983.345C1118.01 977.067 1119.62 976.709 1132.71 977.426ZM1050.4 985.677C1052.19 985.497 1052.19 986.035 1050.22 988.546C1048.78 990.34 1046.09 994.645 1044.12 998.052C1042.15 1001.46 1038.38 1010.43 1035.87 1017.78C1033.36 1025.14 1030.31 1036.26 1028.87 1042.53C1027.62 1048.63 1026.01 1053.65 1025.65 1053.65C1025.11 1053.83 1015.78 1046.3 1005.02 1037.15C994.083 1027.83 983.861 1018.32 982.247 1015.99C979.378 1011.68 979.378 1011.33 982.247 1007.56C983.861 1005.23 986.372 1003.07 987.986 1002.72C989.421 1002.18 993.007 1001.28 996.056 1000.92C998.926 1000.38 1003.77 998.949 1006.82 997.694C1009.69 996.618 1013.27 994.645 1014.89 993.21C1016.32 991.954 1024.39 989.802 1032.82 988.367C1041.07 987.111 1049.14 985.856 1050.4 985.677ZM945.304 1005.41C948.532 1005.23 950.684 1006.3 951.401 1008.28C951.939 1010.07 951.939 1013.12 951.401 1015.09C950.863 1017.06 934.006 1035.36 913.92 1055.63C894.013 1075.89 873.031 1097.6 867.292 1103.52C861.553 1109.61 856.173 1114.64 855.276 1114.64C854.2 1114.64 851.152 1113.38 848.462 1111.95C845.772 1110.51 839.853 1108 835.549 1106.21C831.066 1104.59 821.023 1102.98 813.132 1102.62C800.579 1101.9 796.813 1102.62 783.542 1107.28C771.885 1111.59 765.07 1115.35 755.206 1123.6C748.033 1129.52 740.501 1137.42 738.528 1141C736.555 1144.77 732.61 1151.41 729.92 1155.89C727.23 1160.37 722.567 1170.6 719.698 1178.85C716.29 1188.53 713.421 1193.56 711.807 1193.56C710.193 1193.56 707.503 1192.48 705.53 1191.22C703.557 1189.79 701.226 1185.48 700.508 1181.72C699.612 1177.77 696.204 1167.37 692.797 1158.58C689.569 1149.61 684.01 1139.21 680.781 1135.44C677.553 1131.5 670.021 1123.07 663.924 1116.61C656.033 1108 648.859 1102.62 638.458 1097.06C630.388 1092.93 622.497 1089.53 620.703 1089.53C618.91 1089.53 616.041 1086.84 614.068 1082.89C612.095 1079.12 608.867 1074.28 606.894 1071.95C604.384 1069.26 601.335 1068 597.39 1068C593.624 1068 590.933 1069.08 590.037 1071.05C588.961 1073.2 589.26 1075 590.933 1076.43C592.189 1077.69 593.444 1079.84 593.444 1080.92C593.444 1082.53 587.705 1083.61 574.972 1084.68C564.93 1085.4 555.245 1086.48 553.452 1087.02C550.583 1087.73 550.583 1087.37 553.093 1082.35C554.528 1079.3 555.245 1076.43 554.887 1075.54C554.349 1074.82 555.963 1072.85 558.473 1071.05C561.343 1069.08 566.364 1068 572.282 1068C577.483 1067.82 583.043 1066.93 584.836 1065.67C586.45 1064.42 587.885 1062.26 587.885 1060.83C587.885 1059.39 586.809 1056.34 585.374 1054.01C583.581 1051.68 579.994 1049.71 575.869 1048.99C569.772 1048.09 568.696 1048.63 564.212 1054.01C561.701 1057.24 557 1065.57 557 1067C556.821 1068.43 553.093 1069.98 545.74 1075.54C538.388 1081.28 532.47 1087.19 532.47 1088.63C532.47 1090.06 529.779 1092.75 526.551 1094.55C523.323 1096.34 518.661 1098.31 516.329 1099.03C512.384 1099.93 509.694 1097.96 494.809 1081.99C485.304 1071.95 474.544 1061.73 470.598 1059.39C466.653 1056.88 462.707 1054.01 461.99 1052.94C461.452 1051.86 461.273 1046.48 461.811 1041.1C462.349 1034.64 461.811 1028.36 457.148 1014.19H463.783C467.549 1014.19 481 1015.45 493.912 1016.89C506.645 1018.5 529.241 1020.83 544.126 1022.27C565.468 1024.42 590.933 1024.78 668.766 1024.24C722.388 1023.88 780.134 1022.62 796.992 1021.55C813.67 1020.29 838.777 1018.14 852.586 1016.71C866.395 1015.27 886.84 1012.76 898.317 1011.33C909.616 1009.89 923.783 1008.1 929.701 1007.2C935.62 1006.3 942.614 1005.59 945.304 1005.41ZM967.721 1033.92C967.9 1033.92 974.894 1040.02 982.965 1047.56C991.035 1055.09 1004.13 1065.49 1011.84 1070.51C1025.11 1079.12 1025.65 1080.02 1024.75 1085.04C1024.21 1087.91 1022.42 1092.22 1020.98 1094.37C1018.47 1098.31 1017.4 1098.49 983.861 1099.21C957.319 1099.57 944.945 1100.65 930.598 1103.7C920.197 1105.85 904.415 1109.97 895.627 1112.84C886.66 1115.89 878.949 1118.22 878.59 1118.22C878.052 1118.22 882.536 1114.1 888.454 1108.9C894.372 1103.7 912.485 1086.12 928.625 1069.8C944.766 1053.47 960.189 1038.77 962.699 1037.15C965.21 1035.36 967.542 1033.92 967.721 1033.92ZM193.881 1324.67C195.674 1324.49 200.875 1328.79 205.538 1333.81C210.201 1339.02 218.45 1347.63 223.83 1353.01C229.39 1358.21 237.819 1365.74 242.84 1369.51C247.682 1373.27 252.524 1376.5 253.6 1376.5C254.497 1376.5 258.263 1378.48 262.029 1380.99C265.795 1383.5 274.583 1387.08 281.756 1389.24C288.93 1391.21 298.793 1394.08 303.815 1395.34C310.091 1397.13 319.776 1397.67 337.889 1397.13C351.698 1396.59 371.425 1395.34 381.826 1394.44C392.049 1393.36 407.83 1391.03 416.797 1389.06C425.585 1387.26 439.394 1384.75 447.284 1383.68C455.175 1382.6 468.446 1379.73 476.875 1377.22C485.125 1374.89 499.292 1370.58 508.259 1367.71C517.047 1364.66 528.345 1360.72 533.366 1358.93C538.208 1356.95 547.713 1353.19 566.364 1345.11L572.282 1349.6C575.51 1351.93 585.374 1358.93 594.341 1364.84C603.308 1370.76 611.916 1376.32 613.351 1377.4C614.785 1378.3 621.062 1382.42 626.98 1386.37C633.078 1390.31 640.61 1395.16 643.838 1397.13C646.887 1399.1 652.984 1402.69 657.288 1405.2C661.592 1407.71 677.195 1416.5 691.9 1424.93C706.606 1433.36 718.442 1440.89 718.263 1441.97C717.904 1442.87 716.469 1444.3 715.214 1445.02C713.779 1445.74 708.937 1447.89 704.633 1449.86C700.15 1451.83 688.852 1456.32 679.526 1460.08C670.021 1463.67 648.68 1471.38 632.002 1477.3C615.144 1483.22 597.748 1488.96 593.444 1490.22C588.961 1491.47 573.538 1495.96 559.37 1500.08C545.023 1504.39 530.497 1508.51 527.089 1509.23C523.503 1510.13 515.074 1512.1 508.259 1513.53C501.265 1514.97 487.097 1518.02 476.875 1520.17C466.473 1522.14 451.947 1525.01 444.594 1526.27C437.062 1527.7 417.694 1530.75 401.553 1533.08C375.55 1536.85 366.045 1537.21 324.438 1537.03C285.164 1536.67 273.327 1536.13 257.187 1533.08C246.247 1531.11 235.846 1528.78 233.873 1528.06C231.9 1527.34 221.678 1523.04 211.456 1518.56C200.875 1514.07 189.398 1507.44 185.452 1503.85C181.507 1500.44 173.437 1493.8 167.518 1489.32C161.6 1484.84 153.53 1477.48 149.764 1473.18C145.998 1468.87 140.259 1459.55 137.031 1452.73C133.803 1445.74 129.14 1433.36 126.809 1424.93C123.401 1412.37 122.684 1405.38 122.684 1385.47C122.684 1372.2 123.222 1358.39 123.76 1354.98C124.477 1351.57 125.553 1345.83 126.091 1342.42C126.809 1339.02 127.706 1334.35 128.064 1332.02C128.782 1328.08 129.14 1328.08 148.15 1329.15C161.959 1329.87 170.746 1329.33 179.175 1327.54C185.452 1326.1 192.088 1324.67 193.881 1324.67ZM758.793 1466.36C760.586 1466.18 770.629 1470.49 781.21 1475.87C791.791 1481.25 809.007 1489.68 819.409 1494.7C829.631 1499.54 843.799 1505.82 850.793 1508.33C857.608 1510.84 866.754 1514.25 870.879 1515.69C875.004 1516.94 878.59 1518.91 878.59 1519.99C878.59 1520.89 875.004 1525.55 870.879 1530.39C866.754 1535.06 857.249 1545.28 849.896 1552.81C842.364 1560.53 835.37 1566.62 834.115 1566.27C832.859 1565.91 821.202 1556.4 808.111 1545.1C795.199 1533.8 779.955 1519.99 774.395 1514.61C768.836 1509.23 759.869 1500.62 754.489 1495.78C748.93 1490.75 742.294 1485.37 739.783 1483.58C737.093 1481.97 735.3 1479.1 735.479 1477.48C735.838 1475.69 739.783 1472.82 745.881 1470.49C751.261 1468.33 757 1466.36 758.793 1466.36ZM715.393 1485.91C716.828 1485.73 722.388 1490.93 727.768 1497.03C733.148 1503.31 754.848 1525.19 776.009 1546C796.992 1566.62 814.029 1584.74 813.67 1586C813.312 1587.25 794.481 1606.98 771.885 1629.94C749.109 1652.9 719.339 1683.03 705.53 1697.2C691.721 1711.19 679.526 1722.67 678.629 1722.67C677.553 1722.67 663.206 1709.22 646.887 1692.71C630.388 1676.03 606.894 1652.9 594.879 1641.24C582.684 1629.4 568.516 1615.77 563.316 1610.75C558.115 1605.72 553.811 1600.52 553.811 1599.27C553.811 1598.19 557.935 1592.27 562.957 1586.35C567.799 1580.43 572.641 1575.23 573.717 1574.7C574.614 1574.16 578.38 1569.31 582.146 1563.75C585.912 1558.19 590.037 1551.56 591.471 1548.87C592.906 1546.36 597.21 1540.08 600.976 1535.24C604.922 1530.21 609.405 1525.55 611.019 1524.65C612.633 1523.76 624.111 1519.63 636.485 1515.33C648.68 1511.2 666.972 1505.1 676.836 1501.52C686.699 1498.11 698.715 1493.27 703.737 1490.58C708.579 1488.06 713.779 1485.91 715.393 1485.91ZM914.099 1531.47C916.789 1532.73 925.397 1535.06 933.288 1536.67C941.179 1538.29 949.608 1540.26 952.119 1541.16C954.45 1542.23 964.134 1544.38 973.639 1546C982.965 1547.61 992.649 1549.76 995.159 1550.84C997.491 1551.74 1006.1 1553.17 1028.34 1554.97L1027.62 1562.14C1027.26 1566.09 1024.21 1576.13 1020.8 1584.56C1017.4 1592.99 1012.02 1607.52 1008.97 1616.84C1005.92 1626.17 1000 1642.67 995.877 1653.61C991.752 1664.38 986.193 1680.16 983.503 1688.59C980.633 1697.02 977.943 1704.37 977.405 1705.27C976.688 1705.99 970.232 1700.43 962.699 1692.71C955.347 1685 928.805 1658.82 904.056 1634.24C868.368 1599.45 859.043 1589.22 859.76 1586.35C860.119 1584.38 864.064 1579.36 868.189 1575.05C872.314 1570.75 883.432 1558.73 892.579 1548.15C909.078 1529.68 909.436 1529.32 914.099 1531.47ZM563.316 1538.11C566.006 1537.93 566.185 1538.46 564.392 1541.87C563.316 1544.2 559.011 1549.94 555.066 1554.97C551.121 1559.81 545.023 1566.98 541.436 1570.57C536.056 1576.13 534.442 1576.85 531.573 1575.23C529.6 1574.16 524.041 1569.67 519.378 1565.01C514.715 1560.53 510.77 1555.86 510.59 1554.79C510.59 1553.71 518.481 1550.48 528.165 1547.79C537.85 1545.1 549.148 1541.87 553.093 1540.62C557.039 1539.18 561.522 1538.11 563.316 1538.11ZM469.164 1559.63C474.364 1559.45 477.054 1561.6 493.912 1579.54C504.314 1590.66 512.742 1600.34 512.742 1601.06C512.742 1601.96 510.77 1604.83 508.618 1607.88C506.466 1610.93 501.803 1616.67 498.575 1620.97C495.167 1625.1 490.325 1631.73 487.815 1635.68C485.304 1639.62 480.641 1645.72 477.413 1649.13C474.185 1652.54 467.191 1661.33 461.99 1668.68C456.789 1676.03 451.768 1682.13 450.871 1682.13C449.795 1682.31 444.415 1669.04 438.676 1652.72C432.937 1636.4 424.688 1612.36 420.204 1599.27C415.9 1586.35 412.314 1573.98 412.314 1572C412.314 1568.96 413.748 1568.24 423.433 1567.34C429.53 1566.62 441.187 1564.83 449.078 1563.04C456.969 1561.24 465.935 1559.63 469.164 1559.63ZM837.881 1609.67C839.495 1609.67 847.027 1615.41 854.738 1622.41C862.45 1629.58 872.134 1638.19 876.618 1641.78C880.922 1645.36 887.019 1650.56 890.247 1653.61C893.475 1656.48 901.366 1663.48 908.002 1668.86C914.458 1674.24 924.859 1683.21 931.136 1688.59C937.234 1693.97 948.352 1703.3 955.705 1709.04C966.465 1717.82 968.976 1720.69 968.618 1724.28C968.438 1726.79 967.004 1732.35 965.569 1736.48C963.417 1742.4 956.961 1749.75 938.13 1767.87C924.501 1780.96 894.731 1810.37 871.776 1833.33C837.343 1867.77 829.631 1874.76 826.941 1873.51C825.148 1872.61 815.464 1863.47 805.421 1853.24C795.378 1843.02 769.015 1816.47 746.777 1793.87C717.904 1764.82 706.427 1751.9 706.427 1749.03C706.427 1746.7 709.655 1742.04 715.035 1737.02C719.698 1732.53 727.588 1724.46 732.251 1719.08C736.914 1713.7 749.826 1699.89 760.766 1688.59C771.705 1677.11 788.742 1658.99 798.606 1648.23C808.469 1637.29 820.664 1624.2 825.686 1619C830.707 1613.98 836.267 1609.67 837.881 1609.67ZM531.214 1622.23C532.29 1622.23 536.953 1625.81 541.436 1629.94C545.74 1634.24 561.522 1650.56 576.407 1666.35C591.113 1681.95 615.323 1706.7 657.109 1747.6L651.011 1754.41C647.783 1758.18 640.072 1766.43 633.974 1772.89C627.877 1779.35 616.937 1791 609.405 1798.9C602.052 1806.79 593.624 1816.11 590.575 1819.7C587.705 1823.29 579.277 1832.97 572.103 1841.22C564.75 1849.48 551.121 1864.9 524.399 1894.85L519.378 1881.04C516.688 1873.33 513.639 1865.44 512.563 1863.47C511.666 1861.49 508.438 1852.52 505.569 1843.74C502.7 1834.77 496.602 1817.01 491.939 1804.28C487.456 1791.36 480.103 1770.92 475.978 1758.54C471.674 1746.16 466.473 1731.81 464.321 1726.61C462.349 1721.59 459.838 1713.7 457.148 1701.14L479.924 1675.85C492.477 1662.04 503.238 1650.56 503.955 1650.39C504.493 1650.21 510.411 1643.75 517.047 1636.04C523.682 1628.5 530.138 1622.23 531.214 1622.23ZM680.602 1773.25C681.857 1773.61 702.481 1792.8 726.512 1815.93C750.544 1839.07 772.961 1860.24 776.368 1863.11C779.776 1865.8 788.384 1873.69 795.557 1880.5C802.731 1887.5 808.649 1893.78 808.649 1894.85C808.649 1895.75 805.959 1899.88 802.731 1903.82C799.503 1907.77 788.025 1920.14 777.265 1931.26C766.325 1942.56 750.185 1959.96 741.397 1970.18C732.43 1980.59 718.084 1996.19 709.296 2005.16C700.508 2013.95 689.21 2026.5 684.009 2032.96C678.809 2039.42 670.021 2048.92 654.419 2063.45L621.6 2029.19C603.666 2010.36 578.559 1983.82 565.826 1970.36C553.093 1956.91 541.436 1943.1 539.643 1939.69C538.029 1936.29 535.518 1928.93 531.752 1913.69L539.643 1906.51C543.947 1902.57 552.376 1894.85 558.294 1889.47C564.212 1884.09 575.152 1873.87 582.325 1867.05C589.678 1860.06 614.247 1836.02 636.844 1813.6C659.62 1791.18 679.347 1772.89 680.602 1773.25ZM947.456 1784.55C947.635 1784.91 947.097 1788.31 946.2 1792.08C945.304 1795.85 943.869 1800.51 942.972 1802.48C942.255 1804.46 939.027 1811.99 935.978 1818.98C932.929 1826.16 930.419 1833.51 930.419 1835.13C930.419 1836.92 925.935 1849.65 920.376 1863.47C914.816 1877.28 908.36 1894.67 906.208 1902.03C903.877 1909.38 900.828 1917.81 899.214 1920.86C897.779 1923.73 896.345 1927.5 896.345 1928.93C896.345 1930.37 894.551 1933.77 888.454 1941.49L879.487 1931.26C874.466 1925.7 865.857 1916.2 860.119 1910.28C854.559 1904.18 849.896 1898.08 849.717 1896.65C849.717 1895.21 852.766 1890.55 856.532 1886.42C860.298 1882.3 870.879 1870.82 880.384 1860.77C889.709 1850.73 903.339 1835.84 910.871 1827.77C918.224 1819.88 929.522 1806.61 935.799 1798.54C942.076 1790.47 947.456 1784.01 947.456 1784.55ZM832.501 1914.58C833.218 1914.58 839.136 1919.61 845.772 1925.52C852.407 1931.62 859.939 1937.9 862.45 1939.51C864.961 1941.13 870.52 1945.25 874.466 1948.66C878.59 1952.07 881.998 1956.19 881.998 1957.63C882.177 1959.06 878.949 1969.65 875.004 1980.95C871.237 1992.25 863.526 2012.87 857.966 2026.68C852.407 2040.49 845.772 2057.35 843.261 2064.35C840.75 2071.16 836.984 2081.39 835.011 2086.77C832.859 2092.15 827.121 2106.68 821.92 2119.05C816.719 2131.43 810.442 2147.57 807.931 2154.93C805.421 2162.28 799.861 2176.81 795.557 2187.21C791.253 2197.61 787.308 2206.04 786.77 2206.04C786.232 2206.04 779.058 2198.33 770.629 2188.82C762.38 2179.32 748.75 2164.07 740.501 2154.93C732.072 2145.78 717.366 2130.17 707.682 2120.13C698.177 2110.09 687.596 2098.61 684.368 2094.48C681.14 2090.18 676.657 2085.69 674.505 2084.08C672.353 2082.64 670.38 2080.13 670.2 2078.52C670.021 2077.08 677.195 2069.01 685.982 2060.76C694.77 2052.33 708.22 2039.24 715.931 2031.71C723.643 2023.99 752.875 1994.58 780.672 1966.06C808.649 1937.72 831.963 1914.58 832.501 1914.58ZM567.082 1997.99C572.282 2003.9 580.532 2013.59 585.374 2019.51C590.037 2025.43 598.107 2034.75 603.308 2040.14C608.508 2045.52 617.296 2055.2 623.035 2061.66C628.594 2068.12 634.333 2075.11 635.768 2077.26C637.92 2081.03 637.74 2082.11 633.436 2088.92C630.746 2093.23 625.187 2100.58 620.883 2105.6C616.758 2110.44 613.171 2115.29 613.171 2116.36C613.171 2117.26 612.275 2119.05 610.84 2120.31C609.047 2122.1 608.15 2121.03 606.177 2114.93C604.742 2110.8 601.873 2103.81 599.721 2099.32C597.39 2094.84 593.624 2086.05 591.113 2079.59C588.602 2073.14 581.608 2053.77 575.331 2036.55C569.234 2019.33 562.598 2002.11 560.805 1998.34C559.011 1994.76 557.397 1990.63 557.397 1989.38C557.397 1988.3 561.701 1992.07 567.082 1997.99ZM678.629 2121.39C693.694 2136.45 717.187 2159.23 730.816 2172.14C744.446 2185.06 761.662 2200.84 768.836 2207.12C781.031 2217.7 781.928 2218.96 780.672 2223.98C779.955 2226.85 778.879 2230.08 778.161 2231.15C777.444 2232.05 776.009 2235.28 774.933 2238.33C773.857 2241.2 770.091 2251.24 766.505 2260.21C763.097 2269.36 758.972 2278.68 757.538 2280.84C756.103 2283.17 752.875 2290.52 750.185 2297.52C747.674 2304.33 744.805 2310.79 744.087 2311.87C743.191 2312.76 739.245 2321.73 735.3 2331.6C731.355 2341.46 725.616 2354.19 722.567 2359.75C719.518 2365.49 716.29 2370.52 715.393 2371.05C714.317 2371.59 711.627 2369.26 709.296 2366.03C706.965 2362.98 702.123 2355.09 698.536 2348.63C694.949 2342.18 690.466 2332.13 688.493 2326.21C686.52 2320.3 684.009 2313.84 683.113 2311.87C682.216 2309.89 678.809 2302.18 675.76 2294.83C672.532 2287.47 667.69 2275.28 664.641 2267.92C661.772 2260.57 656.571 2247.12 653.163 2238.33C649.756 2229.36 645.99 2218.96 644.555 2215.01C643.3 2211.07 640.072 2202.99 637.74 2197.08C635.23 2191.16 631.284 2181.47 628.774 2175.55C626.263 2169.63 622.676 2160.31 620.703 2154.93C618.551 2149.54 615.861 2141.65 614.606 2137.71C612.275 2130.35 612.275 2130.17 618.551 2123.36C621.959 2119.59 626.98 2114.57 629.491 2112.06C632.181 2109.37 637.382 2105.06 641.148 2102.37C644.735 2099.5 648.68 2096.45 649.577 2095.74C650.473 2094.84 662.668 2105.42 678.629 2121.39Z" fill="#E9A70C"/>
<path d="M282.474 360.427C284.267 358.992 290.544 356.123 296.462 354.329C302.38 352.356 307.401 350.742 307.581 350.742C307.939 350.562 310.809 351.639 313.858 353.073C317.086 354.329 321.748 357.378 324.259 359.53C327.308 362.221 328.922 365.808 329.46 371.009C329.819 376.928 329.101 379.26 325.514 382.847C323.183 385.358 317.803 389.842 313.678 392.712C307.043 397.555 306.146 397.734 303.456 395.402C301.842 393.968 295.745 386.076 290.006 377.825C280.142 364.014 279.604 362.938 282.474 360.427Z" fill="#FBFBFA"/>
<path d="M203.924 433.068C210.201 425.714 225.265 409.751 236.922 397.734C254.856 379.439 258.98 376.211 261.132 378.004C262.567 379.26 266.871 384.641 270.637 390.022C274.403 395.402 279.963 403.294 288.392 415.132L277.273 428.943C271.175 436.655 259.877 450.645 251.986 459.972C244.275 469.299 229.21 487.414 218.809 500.149C208.737 512.1 198.99 524.051 193.281 531.052L192.446 532.075L180.789 520.237C174.333 513.601 167.339 505.171 161.242 494.947L166.084 485.082C168.774 479.702 175.768 468.761 181.686 460.869C187.425 452.977 197.468 440.422 203.924 433.068Z" fill="#FBFBFA"/>
<path d="M777.623 387.869C777.265 387.152 780.852 385.896 785.156 384.82C789.639 383.923 798.965 383.206 806.138 383.385C814.746 383.565 819.947 384.641 821.92 386.434C824.072 388.407 824.61 390.918 823.893 396.299C823.175 400.245 820.126 407.778 816.898 413.159C813.85 418.54 810.083 423.203 809.008 423.562C807.752 423.921 803.627 419.078 800.041 412.98C796.275 406.881 789.818 398.99 785.514 395.402C781.39 391.995 777.803 388.587 777.623 387.869Z" fill="#FBFBFA"/>
<path d="M726.154 424.1C728.126 420.692 734.403 413.338 739.963 407.778C745.522 402.218 751.082 397.555 751.978 397.375C752.875 397.196 757.358 399.707 761.662 402.936C767.222 407.24 771.167 412.262 775.471 421.41C778.7 428.405 781.569 436.655 781.569 439.704C781.569 442.933 779.955 448.672 777.803 452.26C775.916 455.863 772.223 461.929 769.708 466.06L769.374 466.608C766.684 470.913 763.994 474.321 763.276 474.321C762.38 474.321 752.875 465.353 742.115 454.591C731.355 443.65 722.388 433.785 722.388 432.53C722.388 431.454 724.002 427.508 726.154 424.1Z" fill="#FBFBFA"/>
<path d="M684.727 470.196C692.618 458.717 699.074 448.314 699.074 447.417C699.074 446.341 699.612 445.623 700.329 445.623C701.226 445.623 707.503 451.901 714.676 459.434C721.67 467.146 730.458 477.011 734.045 481.495C737.631 485.979 741.039 491.539 741.577 494.05C742.294 497.458 740.142 501.404 732.431 511.09C726.871 517.905 717.187 529.205 710.731 536.2C704.275 543.016 699.074 549.293 699.074 550.011C699.074 550.908 695.308 554.495 690.645 558.441C685.803 562.207 680.243 565.795 678.091 566.512C674.863 567.229 672.173 565.974 666.614 560.772C662.489 557.185 656.392 549.831 653.164 544.63C649.756 539.429 647.066 532.972 647.066 529.923C647.066 526.156 650.653 519.34 658.723 507.861C665.179 498.893 676.836 481.854 684.727 470.196Z" fill="#FBFBFA"/>
<path d="M241.405 1042.71C250.014 1040.56 262.208 1038.23 268.665 1037.51C275.121 1036.61 288.75 1036.44 299.152 1036.79C309.553 1037.33 325.694 1038.95 335.019 1040.56C344.345 1042.18 353.312 1043.61 354.746 1043.79C356.181 1043.97 358.692 1044.69 360.127 1045.22C361.561 1045.76 367.3 1047.91 372.68 1049.71C378.06 1051.68 388.641 1055.63 395.994 1058.68C403.347 1061.73 416.797 1068.9 425.943 1074.64C435.09 1080.38 449.795 1091.5 458.762 1099.39C467.908 1107.28 476.516 1115.71 477.951 1118.22C480.641 1122.53 480.462 1122.89 475.62 1126.12C472.75 1127.91 463.604 1136.7 439.932 1161.45L433.655 1154.81C430.247 1151.23 421.281 1143.87 413.928 1138.31C406.575 1132.93 397.07 1125.4 392.945 1121.45C388.641 1117.69 384.875 1114.64 384.337 1114.64C383.799 1114.64 384.696 1117.69 386.31 1121.27C387.745 1125.04 393.125 1134.9 398.146 1143.33C403.167 1151.76 410.879 1163.42 415.362 1169.34C419.846 1175.26 424.15 1181 424.867 1181.9C425.585 1182.79 424.15 1187.1 421.46 1191.04C418.77 1195.17 415.721 1200.01 414.824 1201.63C413.21 1204.5 411.776 1203.6 402.271 1194.63C394.38 1187.1 385.772 1181.72 369.631 1173.83C357.437 1167.91 346.318 1163.24 344.704 1163.42C343.269 1163.78 341.834 1164.5 341.655 1165.22C341.475 1166.11 345.421 1171.14 350.263 1176.87C355.284 1182.43 369.093 1196.96 381.288 1209.16C396.532 1224.41 402.988 1232.12 402.271 1234.27C401.912 1236.06 401.015 1239.65 400.477 1242.34C399.939 1245.21 399.043 1247.36 398.325 1247.36C397.429 1247.36 390.076 1245.39 381.647 1243.06C373.218 1240.55 357.436 1235.7 346.676 1232.12C335.916 1228.71 320.852 1224.23 313.499 1222.43C306.146 1220.64 298.973 1218.67 297.897 1218.13C296.641 1217.41 295.206 1217.77 294.668 1218.67C294.13 1219.56 300.407 1227.1 308.657 1235.35C319.596 1246.47 326.949 1252.03 337.709 1257.59C345.6 1261.53 356.898 1266.55 362.817 1268.71C368.735 1270.68 378.419 1273.55 395.097 1277.32L395.277 1297.76C395.456 1309.06 396.891 1325.38 398.505 1334.35C400.298 1343.32 401.912 1351.03 402.45 1351.75C402.809 1352.65 402.988 1353.19 402.809 1353.19C402.45 1353.19 392.587 1354.44 380.75 1355.88C368.914 1357.31 347.932 1358.57 334.123 1358.75C312.064 1358.75 307.222 1358.21 294.668 1354.26C286.778 1351.75 275.121 1346.73 268.665 1342.96C261.67 1338.84 249.476 1328.61 238.177 1317.31C222.934 1302.25 217.912 1295.79 212.711 1285.03C209.125 1277.68 204.821 1265.3 203.386 1257.59C201.772 1250.05 200.516 1241.98 200.516 1239.65C200.696 1236.06 200.337 1236.06 197.826 1238.4C196.392 1239.83 193.881 1248.44 192.267 1258.12C190.653 1267.45 188.68 1278.03 187.784 1281.44C186.349 1287.36 185.811 1287.9 175.051 1289.87C168.774 1291.13 155.324 1292.2 144.922 1292.2C134.52 1292.2 122.146 1291.13 117.125 1289.69C112.283 1288.44 104.212 1285.57 99.191 1283.41C94.3489 1281.26 89.6861 1280.01 88.9687 1280.9C88.2514 1281.62 89.6861 1286.64 92.0175 1291.67C94.5282 1296.87 97.3976 1301.53 98.2943 1302.07C99.3703 1302.61 100.088 1305.12 100.088 1307.81C100.088 1310.68 97.5769 1320.54 94.5282 1329.87C91.4795 1339.2 88.2514 1348.88 85.5613 1355.88L81.2572 1351.39C78.7465 1348.88 74.9804 1342.78 73.0077 1337.94C70.8557 1332.92 67.9863 1323.77 66.7309 1317.31C65.2962 1310.86 64.2202 1297.58 64.2202 1287.72C64.2202 1277.68 65.4756 1265.48 66.9103 1259.92C68.345 1254.54 70.8557 1246.83 72.6491 1242.88C74.2631 1238.93 78.2085 1232.12 81.0779 1227.81C84.1266 1223.51 91.4795 1216.33 97.3976 1211.85C103.316 1207.37 116.587 1199.29 126.988 1194.09C137.39 1188.89 152.813 1182.26 161.6 1179.21C170.208 1176.34 176.844 1172.93 176.306 1172.03C175.768 1171.14 170.746 1169.7 165.187 1169.16C159.448 1168.44 146.895 1168.8 137.39 1170.06C127.706 1171.14 115.331 1173.47 100.088 1178.31L101.164 1173.83C101.702 1171.31 105.647 1164.14 109.772 1157.68C114.435 1150.33 121.967 1142.44 129.678 1136.16C136.672 1130.6 145.101 1124.86 148.509 1123.25C151.916 1121.63 161.242 1119.12 169.132 1117.33C177.023 1115.71 193.522 1113.92 205.897 1113.56C218.271 1113.2 228.493 1111.95 228.852 1111.05C229.031 1109.97 225.444 1106.92 220.782 1103.88C215.939 1101.01 208.587 1097.78 204.103 1096.7C199.62 1095.8 193.522 1094.55 190.653 1094.19C187.784 1093.83 180.969 1093.29 175.947 1093.29C170.746 1093.11 166.442 1092.22 166.442 1091.32C166.442 1090.42 169.312 1086.12 172.899 1081.81C176.485 1077.69 183.659 1071.23 188.68 1067.29C193.702 1063.52 204.103 1057.24 211.815 1053.47C219.347 1049.53 232.618 1044.87 241.405 1042.71Z" fill="#FBFBFA"/>
<path d="M530.497 1133.83C534.98 1132.03 544.126 1128.99 551.121 1127.19C559.012 1125.04 570.13 1123.78 581.249 1123.78C593.086 1123.6 601.873 1124.68 609.047 1126.83C614.606 1128.63 623.573 1132.75 628.953 1136.16C634.333 1139.57 641.327 1145.67 644.555 1149.61C647.783 1153.56 651.908 1160.37 653.881 1164.86C655.854 1169.34 656.93 1173.83 656.392 1174.9C655.674 1175.8 648.68 1176.87 640.789 1176.87C629.491 1177.05 623.752 1178.31 613.889 1182.26C604.384 1186.02 598.286 1190.33 587.885 1200.01C579.635 1208.08 571.206 1218.31 566.006 1226.92C561.343 1234.81 555.425 1247.18 552.735 1254.54C550.224 1261.89 546.996 1274.81 545.561 1283.24C544.126 1291.67 543.05 1301.89 543.05 1306.01C543.05 1311.93 542.154 1314.26 539.105 1316.42C536.774 1317.85 523.323 1323.05 508.976 1327.9C494.629 1332.74 475.799 1338.48 466.832 1340.63C457.865 1342.78 448.719 1344.22 446.208 1343.86C442.98 1343.5 440.649 1341.17 438.138 1336.15C435.269 1330.23 434.551 1324.31 434.013 1302.07C433.475 1281.98 434.013 1271.04 436.345 1259.02C437.959 1250.05 442.263 1235.7 445.67 1226.74C449.257 1217.77 455.355 1205.39 459.121 1198.94C463.066 1192.48 470.24 1182.43 475.082 1176.52C479.924 1170.6 487.635 1162.53 492.298 1158.4C497.14 1154.28 505.748 1148 511.666 1144.23C517.585 1140.46 526.013 1135.8 530.497 1133.83Z" fill="#FBFBFA"/>
<path d="M920.555 1140.64C923.425 1139.93 934.364 1137.77 944.766 1136.16C957.319 1134.01 974.356 1132.93 996.415 1132.75C1023.85 1132.57 1029.23 1132.93 1029.95 1135.26C1030.49 1136.7 1030.85 1139.93 1030.85 1142.44C1030.85 1144.95 1031.56 1150.33 1032.64 1154.45C1033.54 1158.76 1036.77 1174.72 1039.81 1189.97C1042.68 1205.21 1048.06 1227.81 1051.47 1240.19C1055.06 1252.56 1061.51 1272.29 1065.82 1284.13C1070.12 1295.97 1074.25 1308.17 1074.96 1311.04C1075.68 1314.8 1075.32 1316.78 1073.71 1317.67C1072.27 1318.39 1064.2 1319.11 1055.6 1319.11C1046.45 1319.11 1029.95 1317.31 1016.14 1314.62C1003.05 1312.29 982.606 1307.45 970.77 1304.04C958.933 1300.63 942.972 1295.61 921.273 1287.72L920.555 1262.61C920.017 1240.91 919.121 1234.09 913.561 1212.39C909.257 1195.35 904.415 1181.72 898.676 1170.24C893.834 1160.91 889.889 1152.84 889.53 1152.3C889.351 1151.76 894.91 1149.25 902.084 1146.74C909.257 1144.05 917.686 1141.36 920.555 1140.64Z" fill="#FBFBFA"/>
<path d="M774.933 1155.35C779.596 1150.69 787.666 1144.95 792.867 1142.44C800.041 1138.85 804.345 1137.95 812.236 1138.31C819.588 1138.67 824.431 1140.29 831.066 1144.23C835.908 1147.28 843.799 1154.63 848.462 1160.37C853.304 1166.29 860.657 1178.31 865.14 1187.28C869.444 1196.25 875.004 1211.49 877.694 1221.36C880.204 1231.22 882.894 1246.83 883.432 1255.97C884.15 1264.94 884.15 1272.47 883.432 1272.47C882.536 1272.47 876.618 1270.32 869.982 1267.81C863.167 1265.12 844.158 1257.05 827.3 1249.87C810.442 1242.7 786.77 1232.3 774.395 1226.74C762.021 1221.18 751.261 1215.98 750.544 1215.26C749.647 1214.72 750.364 1208.62 751.978 1201.63C753.592 1194.63 757.717 1183.51 760.766 1176.52C764.173 1169.34 770.091 1160.37 774.933 1155.35Z" fill="#FBFBFA"/>
<path d="M377.343 798.066C374.653 793.223 372.68 787.663 372.68 786.049C372.68 784.255 373.218 782.82 374.115 782.82C374.832 782.82 381.468 788.38 388.821 795.376C396.173 802.191 403.347 807.931 404.602 807.931C405.678 807.931 406.934 808.469 407.292 809.366C407.472 810.083 410.879 813.132 414.824 816.181C418.77 819.23 425.585 823.535 430.068 825.687C434.551 827.84 442.98 832.324 448.898 835.911C454.817 839.319 465.039 844.161 471.854 846.673C478.489 849.004 486.021 851.336 488.711 851.874C491.581 852.233 499.83 854.026 507.183 855.641C514.536 857.075 522.247 859.048 524.22 859.945C526.193 860.663 530.318 861.38 533.187 861.559C536.056 861.739 541.078 862.636 543.947 863.532C546.817 864.609 560.267 865.685 573.538 865.864C586.809 866.223 607.433 865.864 619.269 865.147C631.105 864.429 644.197 864.25 648.321 864.967C654.24 865.864 655.495 866.761 653.702 868.375C652.625 869.451 647.066 872.859 641.686 875.908C634.871 879.495 624.649 882.724 608.509 885.773C589.319 889.54 579.994 890.436 556.501 890.436C540.719 890.436 522.606 889.54 516.15 888.463C509.694 887.387 497.678 884.518 489.249 882.006C480.82 879.316 464.321 872.5 452.485 866.761L425.585 853.309C422.715 851.695 412.852 843.085 404.064 834.117C395.097 825.149 386.489 815.464 384.875 812.415C383.261 809.545 379.854 803.088 377.343 798.066Z" fill="#0A0C0C"/>
</svg>
